<svg xmlns="http://www.w3.org/2000/svg" width="70" height="59" viewBox="0 0 70 59">
        <g fill="none" fill-rule="evenodd" stroke="#A6A6A6" stroke-linecap="round" stroke-width="2.75">
            <path stroke-linejoin="round" d="M2.308 43.543v2.798-13.082c0-4.745 3.894-4.47 6.538-8.94 2.076-4.654 6.539-19.433 6.539-19.433 1.307-2.59 3.248-2.59 5.23-2.59h28.77c3.077 0 4.38.766 5.23 2.59.85 1.824 6.539 19.432 6.539 19.432.945 2.19 5.902 4.188 6.393 8.849.327 3.086 0 13.174 0 13.174H2.307"></path>
            <path stroke-linejoin="round" d="M65.077 46.34v7.346c0 1.669-1.252 3.019-2.798 3.019h-7.481c-1.546 0-2.798-1.35-2.798-3.02v-7.344M18 46.34v7.346c0 1.669-1.252 3.019-2.798 3.019H7.721c-1.546 0-2.798-1.35-2.798-3.02v-7.344M46.77 37.273l10.46-1.296M23.23 37.273l-10.46-1.296"></path>
            <path d="M4.923 20.43l3.924 1.3M65.077 20.43l-3.924 1.3M15.646 22.375h38.97"></path>
        </g>
</svg>