<svg width="55px" height="69px" viewBox="0 0 55 69" version="1.1" xmlns="http://www.w3.org/2000/svg" xmlns:xlink="http://www.w3.org/1999/xlink">
                        <g id="Homepage" stroke="none" stroke-width="1" fill="none" fill-rule="evenodd">
                            <g transform="translate(-416.000000, -1860.000000)" id="Categories">
                                <g transform="translate(321.000000, 1389.000000)">
                                    <g id="Troubleshooting" transform="translate(0.000000, 436.000000)">
                                        <g id="Troubleshoot" transform="translate(96.000000, 36.000000)">
                                            <g id="Phone">
                                                <path d="M23,62.572293 L6.5015,62.572293 C3.1865,62.572293 0.5015,60.1596843 0.5015,57.1809886 L0.5015,5.96359732 C0.5015,2.98759732 3.1865,0.572292969 6.5015,0.572292969 L6.5015,0.572292969 L33.5015,0.572292969 C36.8165,0.572292969 39.5015,2.98759732 39.5015,5.96359732 L39.5015,33" id="Stroke-309" stroke="#A6A6A6" stroke-width="3" stroke-linecap="round" stroke-linejoin="round"></path>
                                                <path d="M15.5015,9.5 L29.5015,9.5" id="Stroke-310" stroke="#A6A6A6" stroke-width="3" stroke-linecap="round" stroke-linejoin="round"></path>
                                                <path d="M9,9.5 L11,9.5" id="Stroke-310" stroke="#A6A6A6" stroke-width="3" stroke-linecap="round" stroke-linejoin="round"></path>
                                                <path d="M0.5015,49.5 L18.5015,49.5" id="Stroke-311" stroke="#A6A6A6" stroke-width="3" stroke-linecap="round" stroke-linejoin="round"></path>
                                                <g id="!" transform="translate(25.000000, 39.000000)">
                                                    <circle id="Oval-2" stroke="#A6A6A6" stroke-width="3" cx="13.5" cy="13.5" r="13.5"></circle>
                                                    <circle id="Oval" fill="#A6A6A6" cx="13.5" cy="20.5" r="1.5"></circle>
                                                    <path d="M13.5,6 L13.5,16" id="Path-11" stroke="#A6A6A6" stroke-width="3" stroke-linecap="round"></path>
                                                </g>
                                            </g>
                                        </g>
                                    </g>
                                </g>
                            </g>
                        </g>
                    </svg>