<svg xmlns="http://www.w3.org/2000/svg" width="68" height="68" viewBox="0 0 68 68">
                        <g fill="none" fill-rule="nonzero" stroke="#A6A6A6" stroke-width="3.025">
                            <path d="M60.983 27.835h-.779c-.093 0-.183-.073-.213-.2a26.718 26.718 0 0 0-3.158-7.622c-.069-.112-.057-.227.011-.294l.544-.543c1.79-1.785 3.744-3.014 1.954-4.799L53.305 8.34c-1.79-1.785-2.871.333-4.66 2.117L48.1 11c-.066.067-.18.078-.294.009a26.833 26.833 0 0 0-7.644-3.147c-.126-.03-.198-.118-.198-.21V6.87c-.073-3.269.706-4.568-1.754-4.568h-9.056c-2.531 0-1.553 2.045-1.553 4.568v.779c0 .093-.073.182-.203.213a26.81 26.81 0 0 0-7.64 3.147c-.113.07-.226.058-.292-.008l-.545-.544c-1.79-1.784-3.072-3.902-4.862-2.117l-6.037 6.037c-1.79 1.785.366 3.014 2.155 4.8l.544.542c.068.067.08.182.01.295a26.696 26.696 0 0 0-3.156 7.622c-.03.128-.118.199-.21.199h-.783c-.655 0-4.582-.943-4.582 1.637v9.056c0 2.524 2.051 1.637 4.582 1.637h.779c.095 0 .183.072.214.198a26.718 26.718 0 0 0 3.157 7.622c.069.113.057.228-.01.296l-.543.54c-1.791 1.786-3.947 3.017-2.157 4.802l6.037 6.037c1.79 1.785 3.072-.334 4.862-2.119l.544-.542c.066-.067.18-.078.294-.01a26.885 26.885 0 0 0 7.644 3.149c.127.03.198.117.198.208v.782c.077 3.219-.203 4.57 1.553 4.57h9.056c2.531 0 1.754-2.047 1.754-4.57v-.778c0-.093.074-.183.203-.214a26.81 26.81 0 0 0 7.64-3.147c.112-.068.227-.057.293.01l.544.542c1.79 1.785 2.871 3.904 4.66 2.12l6.038-6.038c1.79-1.785-.164-3.016-1.954-4.8l-.547-.545c-.065-.065-.077-.18-.008-.294a26.675 26.675 0 0 0 3.157-7.622c.03-.125.118-.197.21-.197h.783c3.053 0 4.582.68 4.582-1.637v-9.056c0-2.524-2.051-1.637-4.582-1.637z"></path>
                            <path d="M47.283 34c0-7.503-6.082-13.585-13.585-13.585-7.503 0-13.585 6.082-13.585 13.585 0 7.503 6.082 13.585 13.585 13.585 3.35 0 13.585-2.47 13.585-13.585z"></path>
                        </g>
                    </svg>