<svg width="80px" height="76px" viewBox="0 0 80 76" version="1.1" xmlns="http://www.w3.org/2000/svg" xmlns:xlink="http://www.w3.org/1999/xlink">
    <g id="Hand-Off" stroke="none" stroke-width="1" fill="none" fill-rule="evenodd">
        <g id="2---Deselected" transform="translate(-362.000000, -474.000000)">
            <g id="Group-2">
              <g id="MileIQ-International" transform="translate(280.000000, 436.000000)">
               <g id="Globe-Deselected" transform="translate(65.000000, 21.000000)">
                    <g id="Group-3" transform="translate(54.500000, 50.000000) rotate(-60.000000) translate(-54.500000, -50.000000) translate(23.000000, 6.000000)">
                        <path d="M36,8 C16.117749,8 0,24.117749 0,44 C0,63.882251 16.117749,80 36,80 L36,80" id="Path" stroke="#A6A6A6" stroke-width="2.75" stroke-linecap="round" stroke-linejoin="round"></path>
                            <g id="Group-5" transform="translate(9.000000, 17.000000)">
                                <circle id="Oval" stroke="#A6A6A6" stroke-width="2.75" stroke-linecap="round" stroke-linejoin="round" cx="27" cy="27" r="27"></circle>
                                <path d="M34.1759075,30.9402656 C34.1759075,31.6573408 34.759274,32.2417721 35.4762665,32.2417721 C36.1932589,32.2417721 36.7766254,31.6573408 36.7766254,30.9402656 L36.7766254,22.1638234 C36.7766254,19.8679859 34.9088552,18 32.6132828,18 C30.3346629,18 28.4668927,19.8550207 28.4509374,22.1279198 L28.0660152,30.3029762 C28.0660152,30.7727153 27.9513363,31.8657813 26.8883127,31.8657813 C25.8661747,31.8657813 25.7106103,30.8525012 25.7096131,30.2421395 L25.3256881,22.1339037 C25.3097327,19.8550207 23.4419625,18 21.1633426,18 C18.8677702,18 17,19.8679859 17,22.1638234 L17,35.4760905 C17,36.1931657 17.5833666,36.7765997 18.300359,36.7765997 C19.0173514,36.7765997 19.600718,36.1931657 19.600718,35.4760905 L19.600718,22.1638234 C19.600718,21.3021364 20.3017551,20.6020156 21.1633426,20.6020156 C22.023933,20.6020156 22.7259673,21.3021364 22.7259673,22.1708047 L23.1128839,30.3707942 C23.1428002,32.7444229 24.730355,34.4667996 26.8883127,34.4667996 C29.0452732,34.4667996 30.6338253,32.7394363 30.6647387,30.3648102 L31.0506582,22.1638234 C31.0506582,21.3021364 31.7516953,20.6020156 32.6132828,20.6020156 C33.4748704,20.6020156 34.1759075,21.3021364 34.1759075,22.1638234 L34.1759075,30.9402656 Z M35.4762665,33.9511837 C34.6356203,33.9511837 33.9515357,34.6353472 33.9515357,35.4760905 C33.9515357,36.3168338 34.6356203,37 35.4762665,37 C36.3159154,37 37,36.3168338 37,35.4760905 C37,34.6353472 36.3159154,33.9511837 35.4762665,33.9511837 L35.4762665,33.9511837 Z" id="Fill-1" fill="#A6A6A6" transform="translate(27.000000, 27.500000) rotate(60.000000) translate(-27.000000, -27.500000) "></path>
                                    </g>
                                   <path d="M36.5,2.48689958e-14 L36.5,16" id="Path-2" stroke="#A6A6A6" stroke-width="2.75" stroke-linecap="round" stroke-linejoin="round"></path>
                                    <path d="M36.5,72 L36.5,88" id="Path-2" stroke="#A6A6A6" stroke-width="2.75" stroke-linecap="round" stroke-linejoin="round"></path>
                                       </g>
                                    <path d="M56.75,82.9855716 L56.6448822,91.3611998" id="Path-3" stroke="#A6A6A6" stroke-width="2.75" stroke-linecap="round" stroke-linejoin="round"></path>
                                   <path d="M46.6448822,91.3611998 L66.6448822,91.3611998" id="Path-4" stroke="#A6A6A6" stroke-width="2.75" stroke-linecap="round" stroke-linejoin="round"></path>
                                </g>
                                    </g>
                               </g>
                   </g>
       </g>
</svg>