<svg width="73px" height="74px" viewBox="0 0 73 74" version="1.1" xmlns="http://www.w3.org/2000/svg" xmlns:xlink="http://www.w3.org/1999/xlink">
                        <g id="Hand-Off" stroke="none" stroke-width="1" fill="none" fill-rule="evenodd" stroke-linecap="round" stroke-linejoin="round">
                            <g id="2---Deselected" transform="translate(-653.000000, -476.000000)" stroke="#A6A6A6" stroke-width="2.75">
                                <g id="Group-2">
                                    <g id="MileIQ-for-UK" transform="translate(560.000000, 436.000000)">
                                        <g id="Section" transform="translate(1.000000, 41.000000)">
                                            <g id="Admin-Deselected" transform="translate(94.000000, 0.000000)">
                                                <g id="Personalization">
                                                    <g id="Person" transform="translate(0.333333, 0.298667)">
                                                        <path d="M30.6573849,65.5 C19.772796,65.5 10.8845889,65.5 0,65.5 L0,46.75 C8.8657161e-16,36.0357143 9.25053808,28 23.9585228,28 C34.7248253,28 42.5726473,32.3126029 46,38.8315792" id="Path"></path>
                                                        <path d="M23.6666667,27.7013333 C16.2069524,27.7013333 10.1666667,21.6571905 10.1666667,14.2013333 C10.1666667,6.74547619 16.2069524,0.701333333 23.6666667,0.701333333 C31.1225238,0.701333333 37.1666667,6.74547619 37.1666667,14.2013333 C37.1666667,21.6571905 31.1225238,27.7013333 23.6666667,27.7013333 Z" id="Stroke"></path>
                                                    </g>
                                                    <g id="Office-Expense" transform="translate(38.000000, 46.000000)">
                                                        <rect id="Rectangle" x="0" y="0" width="31" height="20"></rect>
                                                        <path d="M7.94,25.3935247 L23.06,25.3935247" id="Stroke-22"></path>
                                                        <path d="M15.5,21 L15.5,25.3636364" id="Stroke-23"></path>
                                                        <path d="M6.86,13.6363636 L24.14,13.6363636" id="Stroke-25"></path>
                                                    </g>
                                                </g>
                                            </g>
                                        </g>
                                    </g>
                                </g>
                            </g>
                        </g>
                    </svg>