<svg width="38px" height="47px" viewBox="0 0 38 47" version="1.1" xmlns="http://www.w3.org/2000/svg" xmlns:xlink="http://www.w3.org/1999/xlink">
    <g id="Pathways" stroke="#000" stroke-width="1.75" fill="none" fill-rule="evenodd">
        <g id="Keep-Cruising" transform="translate(1.000000, 1.000000)">
            <g id="Account-Settings" transform="translate(18.150943, 26.892308)" fill-rule="nonzero" fill="#FFB213">
                <path d="M17.3714383,7.71313062 C18.1168936,7.71313062 18.7210253,7.44849284 18.7210253,8.20188679 L18.7210253,10.9058055 C18.7210253,11.5973551 18.2705831,11.3945617 17.3714383,11.3945617 L17.1406361,11.3945617 C17.1138327,11.3945617 17.0880625,11.4158532 17.0790969,11.453418 C16.8862261,12.2602126 16.57202,13.0272474 16.1493497,13.7289461 C16.1289722,13.7628371 16.1324365,13.7973022 16.1515911,13.8167325 L16.3127038,13.9791179 C16.8397286,14.5119534 17.4154128,14.8793927 16.8882805,15.4123367 L15.1100676,17.2149492 C14.5830428,17.7477847 14.2645511,17.1150202 13.7375263,16.5821847 L13.5773575,16.42025 C13.5577843,16.400461 13.524007,16.3969885 13.490859,16.417361 C12.7968901,16.8446434 12.0387494,17.1619353 11.240873,17.356903 C11.202858,17.3662446 11.181155,17.3931021 11.181155,17.420754 L11.181155,17.6530951 C11.181155,18.4065178 11.4099623,19.0175617 10.6645354,19.0175617 L7.99721609,19.0175617 C7.48015231,19.0175617 7.56266203,18.6140424 7.53987032,17.6530951 L7.53987032,17.4197482 C7.53987032,17.3923911 7.51905082,17.3666534 7.48147138,17.3574854 C6.68265916,17.1618901 5.92462671,16.8446204 5.23044521,16.4175325 C5.19701831,16.3969885 5.16324102,16.400461 5.14366776,16.42025 L4.98349899,16.5821847 C4.45647415,17.1150202 4.07860127,17.7476761 3.55168387,17.2149492 L1.77347099,15.4123367 C1.24644615,14.8795013 1.88129665,14.5119534 2.40876799,13.9786672 L2.56853052,13.8176461 C2.58858876,13.7973022 2.59205303,13.7628371 2.57184523,13.7292281 C2.14944754,13.0279817 1.83552993,12.2615958 1.64184238,11.4535606 C1.6328997,11.4160045 1.60689053,11.3945617 1.5788969,11.3945617 L1.34958695,11.3945617 C0.604160091,11.3945617 0,11.6592283 0,10.9058055 L0,8.20188679 C0,7.43182842 1.15655702,7.71313062 1.34958695,7.71313062 L1.57989174,7.71313062 C1.60715987,7.71313062 1.63284849,7.69190286 1.64192834,7.65377143 C1.8346885,6.8474396 2.14873767,6.08092153 2.57167553,5.3782433 C2.59200586,5.34443074 2.588554,5.31029115 2.56849025,5.2900062 L2.40832148,5.12807151 C1.88129665,4.59523605 1.24644615,4.22819105 1.77347099,3.69535559 L3.55168387,1.89274311 C4.07870871,1.35990764 4.45647415,1.99216922 4.98349899,2.52500468 L5.14412491,2.6874023 C5.16337985,2.70693153 5.19678343,2.71034529 5.2301663,2.68982843 C5.92413519,2.26254605 6.68227583,1.94525406 7.48015231,1.75028645 C7.51840705,1.74088591 7.53987032,1.71434557 7.53987032,1.68643541 L7.53987032,1.45409434 C7.53987032,0.700700388 7.25176081,0.0901306241 7.99721609,0.0901306241 L10.6645354,0.0901306241 C11.3890439,0.0901306241 11.1595709,0.478114569 11.181155,1.45409434 L11.181155,1.68744122 C11.181155,1.71493491 11.2022348,1.74101463 11.2393106,1.75014742 C12.0378853,1.94515895 12.7960287,2.2623415 13.4905801,2.68965686 C13.5242418,2.71034529 13.5576454,2.70693153 13.5773575,2.68693937 L13.7375263,2.52500468 C14.2645511,1.99216922 14.5830428,1.35990764 15.1100676,1.89274311 L16.8882805,3.69535559 C17.4153054,4.22819105 16.8397286,4.59523605 16.3127038,5.12807151 L16.152535,5.2900062 C16.1324713,5.31029115 16.1290194,5.34443074 16.14918,5.37796132 C16.5715777,6.07920771 16.8854953,6.84559365 17.0791829,7.65362879 C17.0881589,7.69132471 17.1145061,7.71306683 17.1421284,7.71313062 L17.3714383,7.71313062 Z M12.4615967,9.55384615 C12.4615967,7.79444657 11.0593588,6.37296807 9.33561766,6.37296807 C7.61187648,6.37296807 6.20963866,7.79444657 6.20963866,9.55384615 C6.20963866,11.3132457 7.61187648,12.7347242 9.33561766,12.7347242 C10.8615917,12.7347242 12.4615967,11.6415215 12.4615967,9.55384615 Z" id="Combined-Shape"></path>
            </g>
            <g id="Plan" stroke="#000000" stroke-width="1.75" stroke-linecap="round" stroke-linejoin="round">
                <path d="M13.8109154,40.8692308 L1.92626279,40.8692308 C0.963879667,40.8692308 0.183714002,40.0732672 0.183714002,39.0979784 L0.183714002,11.6769231 L13.4111221,0.176923077 L30.1873301,0.176923077 C31.1495004,0.176923077 31.9294935,0.970834643 31.9294935,1.94594737 L31.9294935,22.483744" id="Stroke-567"></path>
                <path d="M1.06554121,12.5615385 L1.06554121,2.81153846 L1.06554121,2.81153846 C1.06554121,1.84504015 1.8490429,1.06153846 2.81554121,1.06153846 L12.5292949,1.06153846" id="Stroke-568" transform="translate(6.797418, 6.811538) rotate(-180.000000) translate(-6.797418, -6.811538) "></path>
            </g>
        </g>
    </g>
</svg>