<svg width="38px" height="47px" viewBox="0 0 38 47" version="1.1" xmlns="http://www.w3.org/2000/svg" xmlns:xlink="http://www.w3.org/1999/xlink">
    <g id="Pathways" stroke="#000" stroke-width="1.5" fill="none" fill-rule="evenodd">
        <g id="Shift-Into-Gear" transform="translate(1.000000, 1.000000)">
            <g id="Plus" transform="translate(18.000000, 27.000000)" fill-rule="nonzero" fill="#FFB213">
                <g id="Maximize">
                    <path d="M10.5979869,10.1950565 L14.1905544,10.1950565 C14.5823702,10.1950565 14.8999996,9.80330563 14.8999996,9.32005647 C14.8999996,8.83680731 14.5823702,8.44505647 14.1905544,8.44505647 L10.5979869,8.44505647 L10.5979869,4.70570265 C10.5979869,4.31595384 10.2062361,4 9.72298694,4 C9.23973778,4 8.84798694,4.31595384 8.84798694,4.70570265 L8.84798694,8.44505647 L5.20944525,8.44505647 C4.81762946,8.44505647 4.5,8.83680731 4.5,9.32005647 C4.5,9.80330563 4.81762946,10.1950565 5.20944525,10.1950565 L8.84798694,10.1950565 L8.84798694,13.6995927 C8.84798694,14.0893415 9.23973778,14.4052953 9.72298694,14.4052953 C10.2062361,14.4052953 10.5979869,14.0893415 10.5979869,13.6995927 L10.5979869,10.1950565 Z M9.55769231,18.4318182 C4.58578665,18.4318182 0.557692308,14.4010651 0.557692308,9.43181818 C0.557692308,4.4625713 4.58578665,0.431818182 9.55769231,0.431818182 C14.529598,0.431818182 18.5576923,4.4625713 18.5576923,9.43181818 C18.5576923,14.4010651 14.529598,18.4318182 9.55769231,18.4318182 Z" id="Combined-Shape"></path>
                </g>
            </g>
            <g id="Phone" stroke="#000000" stroke-width="1.75" stroke-linecap="round" stroke-linejoin="round">
                <path d="M15.9230769,43.6109921 L4.50103846,43.6109921 C2.20603846,43.6109921 0.347192308,41.9294769 0.347192308,39.8534163 L0.347192308,4.15644661 C0.347192308,2.0822648 2.20603846,0.398870857 4.50103846,0.398870857 L4.50103846,0.398870857 L23.1933462,0.398870857 C25.4883462,0.398870857 27.3471923,2.0822648 27.3471923,4.15644661 L27.3471923,23" id="Stroke-309"></path>
                <path d="M10.7318077,6.27272727 L20.4241154,6.27272727" id="Stroke-310"></path>
                <path d="M6.23076923,6.27272727 L7.61538462,6.27272727" id="Stroke-310"></path>
                <path d="M0.347192308,34.1515152 L12.8087308,34.1515152" id="Stroke-311"></path>
            </g>
        </g>
    </g>
</svg>