<svg width="46px" height="48px" viewBox="0 0 46 48" version="1.1" xmlns="http://www.w3.org/2000/svg" xmlns:xlink="http://www.w3.org/1999/xlink">
    <g id="Pathways" stroke="#000" stroke-width="1.75" fill="none" fill-rule="evenodd">
        <g id="Start-Your-Engine" transform="translate(1.000000, 0.000000)">
            <g id="Vehicle" transform="translate(0.000000, 9.833610)" stroke="#000000" stroke-width="1.75" stroke-linecap="round">
                <path d="M0.174603175,28.3080273 L0.174603175,30.2161415 L0.174603175,21.2953592 C0.174603175,18.484133 2.86698293,17.2100802 4.53968254,15.199005 C4.79209128,14.8955357 5.41269841,12.5489221 5.41269841,12.5489221 M22.8730159,0.181868436 L31.6031746,0.181868436 C33.6578018,0.181868436 34.5279578,0.704834161 35.0952381,1.94859038 C35.6625184,3.1923466 39.4603175,15.199005 39.4603175,15.199005 C40.0910993,16.6920696 43.400799,18.0543506 43.7281846,21.2326839 C43.9469121,23.3371807 43.7281846,30.2161415 43.7281846,30.2161415 L0.174603175,30.2161415" id="Stroke-" stroke-linejoin="round"></path>
                <path d="M42.0793651,30.2161415 L42.0793651,35.2245881 C42.0793651,36.3626532 41.243638,37.2830293 40.2116541,37.2830293 L35.2169173,37.2830293 C34.1849334,37.2830293 33.3492063,36.3626532 33.3492063,35.2245881 L33.3492063,30.2161415" id="Stroke-" stroke-linejoin="round"></path>
                <path d="M10.6507937,30.2161415 L10.6507937,35.2245881 C10.6507937,36.3626532 9.81506658,37.2830293 8.78308266,37.2830293 L3.78834591,37.2830293 C2.75636199,37.2830293 1.92063492,36.3626532 1.92063492,35.2245881 L1.92063492,30.2161415" id="Stroke-" stroke-linejoin="round"></path>
                <path d="M29.8571429,24.0326147 L36.8412698,23.1492537" id="Stroke-" stroke-linejoin="round"></path>
                <path d="M13.2698413,24.0326147 L6.28571429,23.1492537" id="Stroke-" stroke-linejoin="round"></path>
                <path d="M4.57813634,12.6898462 L1.88218113,13.2913589" id="Path-" transform="translate(3.230159, 12.990603) scale(-1, 1) rotate(-6.000000) translate(-3.230159, -12.990603) "></path>
                <path d="M42.1178189,12.6898462 L39.4218637,13.2913589" id="Path-" transform="translate(40.769841, 12.990603) rotate(-6.000000) translate(-40.769841, -12.990603) "></path>
                <path d="M17.6349206,12.875 L35.0952381,12.875" id="Path-"></path>
            </g>
            <g id="Pin" transform="translate(2.492063, 0.000000)" fill-rule="nonzero" fill="#FFB213">
                <path d="M8.0058446,24.2626369 C7.73380867,23.9153119 7.43102887,23.5212533 7.10514447,23.0877311 C6.17414768,21.8492311 5.24309989,20.5408848 4.37282229,19.2200994 C3.74284178,18.2640032 3.16788822,17.3356986 2.6602159,16.4463243 C1.14944594,13.7996567 0.299603175,11.634113 0.299603175,10.0154782 C0.299603175,4.60236396 3.69594838,0.306868436 9.03234031,0.306868436 C14.3685875,0.306868436 17.7638889,4.60201837 17.7638889,10.0154782 C17.7638889,11.6340855 16.9141785,13.7996194 15.4036441,16.4462748 C14.8960489,17.3356485 14.3211825,18.2639527 13.6912975,19.2200486 C12.8211516,20.5408339 11.8902447,21.8491802 10.9593886,23.0876802 C10.6335535,23.5212026 10.3308194,23.9152612 10.0588246,24.2625863 C9.89482057,24.472012 9.77691484,24.6200471 9.71275719,24.6993972 C9.3625617,25.1325186 8.70219165,25.1325431 8.35196412,24.6994476 C8.28779684,24.6200975 8.16987334,24.4720625 8.0058446,24.2626369 Z M9.03174603,12.6572001 C10.9637801,12.6572001 12.5257937,11.076677 12.5257937,9.13211719 C12.5257937,7.1875574 10.9637801,5.60703427 9.03174603,5.60703427 C7.09918291,5.60703427 5.53769841,7.18733399 5.53769841,9.13211719 C5.53769841,11.0769004 7.09918291,12.6572001 9.03174603,12.6572001 Z" id="Combined-Shape"></path>
            </g>
        </g>
    </g>
</svg>