<svg xmlns="http://www.w3.org/2000/svg" width="151" height="28" viewBox="0 0 151 28">
    <g fill="none" fill-rule="evenodd">
        <path fill="#00141A" d="M101.092 3.043h-2.04a.562.562 0 0 0-.56.563v19.809c0 .31.251.563.56.563h2.04c.31 0 .562-.253.562-.563V3.606a.562.562 0 0 0-.562-.563zm7.277 12.474l.008-.115c.122-1.577 1.413-3.254 3.572-3.254 2.573 0 3.548 1.755 3.601 3.258l.004.11h-7.185zm3.55-5.989c-3.339 0-6.794 2.757-6.794 7.371 0 4.934 3.594 7.517 7.144 7.517 2.912 0 5.218-1.508 6.17-4.033a.28.28 0 0 0-.012-.223.301.301 0 0 0-.184-.159l-2.18-.68a.305.305 0 0 0-.277.196c-.618 1.454-1.8 2.193-3.517 2.193-2.18 0-3.892-1.638-3.98-3.814l-.004-.11 10.38.062c.021-.062.077-.502.077-1.037 0-4.491-2.614-7.283-6.822-7.283zm33.767 9.041l-.079.107-3.087-3.442a.56.56 0 0 0-.782-.05l-1.371 1.175a.561.561 0 0 0-.052.805l3.042 3.393-.128.062c-.919.446-2.002.682-3.133.682-3.374 0-7.008-2.376-7.008-7.587 0-5.21 3.634-7.585 7.008-7.585 3.39 0 7.037 2.374 7.037 7.585 0 1.904-.488 3.538-1.447 4.855zm2.098 2.536l.064-.072c1.735-1.926 2.652-4.456 2.652-7.319 0-6.932-5.36-10.67-10.404-10.67-5.028 0-10.374 3.738-10.374 10.67 0 7.026 5.219 10.702 10.374 10.702 1.873 0 3.768-.503 5.334-1.416l.073-.044 2.156 2.363a.57.57 0 0 0 .779.049l1.345-1.153a.562.562 0 0 0 .055-.804l-2.054-2.306zM126.59 3.481h-2.214a.565.565 0 0 0-.563.563v19.371c0 .31.253.563.563.563h2.214c.31 0 .561-.253.561-.563V4.045c0-.31-.25-.564-.561-.564zm-41.238 0h-3.41c-.324 0-.702.254-.828.552l-6.092 14.568c-.117.28-.275.322-.358.322-.083 0-.241-.042-.359-.32L68.13 4.032c-.128-.297-.508-.551-.83-.551h-3.323a.564.564 0 0 0-.562.563v19.371c0 .31.252.563.562.563h2.07c.31 0 .561-.253.561-.563V9.565c0-.098 0-.4.192-.4.1 0 .184.096.274.307l5.858 13.952c.124.302.504.554.828.554h1.691c.326 0 .705-.253.83-.552l5.914-14.013c.09-.211.173-.306.275-.306.192 0 .192.302.192.4v13.908c0 .31.252.563.561.563h2.128c.31 0 .561-.253.561-.563V4.045a.564.564 0 0 0-.561-.564zm7.998 6.486h-2.01a.562.562 0 0 0-.561.563v12.885c0 .31.252.563.561.563h2.01c.31 0 .562-.253.562-.563V10.531a.562.562 0 0 0-.562-.564zM92.33 2.75c-1.146 0-2.075.947-2.075 2.113 0 1.15.93 2.084 2.075 2.084 1.18 0 2.106-.916 2.106-2.084A2.112 2.112 0 0 0 92.33 2.75z"/>
        <path fill="#FFB214" d="M25.033 19.164c0 1.007.816 1.827 1.82 1.827 1.003 0 1.819-.82 1.819-1.827V6.844C28.672 3.622 26.059 1 22.846 1c-3.188 0-5.801 2.604-5.824 5.795l-.538 11.476c0 .66-.16 2.194-1.648 2.194-1.43 0-1.648-1.423-1.65-2.28L12.65 6.802C12.627 3.603 10.013 1 6.825 1 3.613 1 .999 3.622.999 6.844v18.688c0 1.006.817 1.825 1.82 1.825 1.003 0 1.82-.819 1.82-1.825V6.844c0-1.21.98-2.192 2.186-2.192 1.204 0 2.187.983 2.187 2.202l.54 11.511c.043 3.332 2.264 5.75 5.284 5.75 3.018 0 5.24-2.425 5.284-5.758l.54-11.513c0-1.21.98-2.192 2.186-2.192s2.187.983 2.187 2.192v12.32zm1.82 4.227a2.14 2.14 0 0 0 0 4.28 2.138 2.138 0 0 0 2.132-2.14 2.14 2.14 0 0 0-2.133-2.14z"/>
        <path stroke="#00141A" stroke-linecap="round" stroke-linejoin="round" stroke-opacity=".296" stroke-width=".875" d="M46.424 2.789v23.357"/>
    </g>
</svg>
